# xmcd
# Copyright (C) 1995-1998 Ti Kan
#
# Track frame offsets:
#       150
#       17664
#       33740
#       48096
#       62807
#       77159
#       95981
#       111083
#       127934
#       147792
#       168733
#       186273
#
# Disc length: 2644 seconds
#
# Revision: 0
# Processed by: cddbd v1.5.2PL0 Copyright (c) Steve Scherf et al.
# Submitted via: CD-Import v1.0
#
DISCID=a60a520c
DTITLE=Reto Burrell - Go
DYEAR=2010
DGENRE=
TTITLE0=This Is It
TTITLE1=Go
TTITLE2=Suitcase
TTITLE3=Some Days
TTITLE4=Is It True
TTITLE5=Coming Home
TTITLE6=Hearts and Bones
TTITLE7=Uninvited History
TTITLE8=Dancing To The Rhythms Of The Rain
TTITLE9=Dirty Little Secrets
TTITLE10=Set It All On Fire
TTITLE11=Not As Cool As L.a.
EXTD=
EXTT0=
EXTT1=
EXTT2=
EXTT3=
EXTT4=
EXTT5=
EXTT6=
EXTT7=
EXTT8=
EXTT9=
EXTT10=
EXTT11=
PLAYORDER=
